<svg width="494" height="1080" viewBox="0 0 494 1080" fill="none" xmlns="http://www.w3.org/2000/svg">
<g clip-path="url(#clip0_2_4)">
<rect width="1920" height="1080" fill="white"/>
<g filter="url(#filter0_f_2_4)">
<path d="M164.329 -61.9583C92.5161 29.5993 85.0233 101.874 45.9574 211.481C-29.4526 423.059 10.9574 566.551 -76.4201 773.474C-254.709 1195.69 -456.979 -171.951 -59.4233 -399.987C190.493 -543.338 900.661 -544.835 677.39 -362.743C588.223 -290.022 507.019 -302.281 407.546 -244.451C304.887 -184.769 237.614 -155.393 164.329 -61.9583Z" fill="url(#paint0_linear_2_4)" fill-opacity="0.8"/>
</g>
<g filter="url(#filter1_f_2_4)">
<path d="M385.014 1036.13C451.069 940.337 454.11 867.74 486.372 755.94C548.647 540.131 499.502 399.391 574.009 187.493C726.034 -244.872 1011.9 1107.77 629.101 1359.78C388.458 1518.21 -320.278 1563.31 -108.609 1367.85C-24.0754 1289.79 57.7279 1297.04 153.462 1233.22C252.262 1167.34 317.605 1133.89 385.014 1036.13Z" fill="url(#paint1_linear_2_4)" fill-opacity="0.81"/>
</g>
</g>
<defs>
<filter id="filter0_f_2_4" x="-599.927" y="-814.539" width="1630.91" height="1979.15" filterUnits="userSpaceOnUse" color-interpolation-filters="sRGB">
<feFlood flood-opacity="0" result="BackgroundImageFix"/>
<feBlend mode="normal" in="SourceGraphic" in2="BackgroundImageFix" result="shape"/>
<feGaussianBlur stdDeviation="155.382" result="effect1_foregroundBlur_2_4"/>
</filter>
<filter id="filter1_f_2_4" x="-458.327" y="-207.888" width="1589.14" height="2015.92" filterUnits="userSpaceOnUse" color-interpolation-filters="sRGB">
<feFlood flood-opacity="0" result="BackgroundImageFix"/>
<feBlend mode="normal" in="SourceGraphic" in2="BackgroundImageFix" result="shape"/>
<feGaussianBlur stdDeviation="155.382" result="effect1_foregroundBlur_2_4"/>
</filter>
<linearGradient id="paint0_linear_2_4" x1="9.30176" y1="382.633" x2="289.703" y2="-313.884" gradientUnits="userSpaceOnUse">
<stop stop-color="#FF0095"/>
<stop offset="1" stop-color="#FFCDFF"/>
</linearGradient>
<linearGradient id="paint1_linear_2_4" x1="512.448" y1="582.86" x2="275.346" y2="1295.28" gradientUnits="userSpaceOnUse">
<stop stop-color="#FF0095"/>
<stop offset="1" stop-color="#FFCDFF"/>
</linearGradient>
<clipPath id="clip0_2_4">
<rect width="1920" height="1080" fill="white"/>
</clipPath>
</defs>
</svg>
